<?xml version="1.0" encoding="UTF-8"?>
<svg id="Layer_1" xmlns="http://www.w3.org/2000/svg" xmlns:xlink="http://www.w3.org/1999/xlink" version="1.1" viewBox="0 0 1200 1200">
  <!-- Generator: Adobe Illustrator 30.0.0, SVG Export Plug-In . SVG Version: 2.1.1 Build 123)  -->
  <defs>
    <style>
      .st0 {
        font-size: 46.93px;
      }

      .st0, .st1, .st2, .st3, .st4, .st5 {
        fill: #fff;
      }

      .st1 {
        font-size: 44.68px;
      }

      .st6, .st7, .st8, .st3 {
        font-style: italic;
      }

      .st6, .st9, .st3, .st4, .st5 {
        font-weight: 500;
      }

      .st6, .st3 {
        font-family: PangeaTrial-MediumItalic, 'PangeaTrial MediumItalic';
      }

      .st10 {
        fill: #efefef;
      }

      .st11 {
        fill: #ff5206;
      }

      .st7 {
        font-family: PangeaTrial-SemiBoldItalic, 'PangeaTrial SemiBoldItalic';
        font-weight: 600;
      }

      .st12 {
        fill: url(#linear-gradient);
      }

      .st13 {
        font-family: SteelfishRg-Bold, Steelfish;
        font-size: 265px;
        font-weight: 700;
      }

      .st14 {
        fill: #ea1d25;
      }

      .st9 {
        font-size: 76.14px;
      }

      .st9, .st4, .st5 {
        font-family: PangeaTrial-Medium, 'PangeaTrial Medium';
      }

      .st9, .st15 {
        fill: #191919;
      }

      .st16 {
        font-family: PangeaTrial-Light, 'PangeaTrial Light';
        font-size: 7.51px;
        font-weight: 300;
        letter-spacing: .12em;
      }

      .st8 {
        font-family: PangeaTrial-Italic, 'PangeaTrial Italic';
        letter-spacing: 0em;
      }

      .st3, .st5 {
        font-size: 64.32px;
      }

      .st4 {
        font-size: 67.91px;
      }

      .st17 {
        font-family: PangeaTrial-Regular, 'PangeaTrial Regular';
      }

      .st18 {
        fill: #161616;
      }
    </style>
    <linearGradient id="linear-gradient" x1="1698.99" y1="628.98" x2="1920.91" y2="628.98" gradientUnits="userSpaceOnUse">
      <stop offset="0" stop-color="#fff"/>
      <stop offset="1" stop-color="#000"/>
    </linearGradient>
  </defs>
  <text class="st16" transform="translate(-466.24 831.56)"><tspan x="0" y="0">consultoría y estrategia de marca</tspan></text>
  <rect class="st15" width="1200" height="1200" rx="131.7" ry="131.7"/>
  <rect class="st18" x="1229" width="1200" height="1200"/>
  <text class="st1" transform="translate(-884.58 798.71) scale(1.04 1)"><tspan class="st17" x="0" y="0">esencial</tspan><tspan class="st7" x="149.79" y="0">.</tspan><tspan class="st6" x="159.04" y="0">work</tspan></text>
  <text class="st1" transform="translate(955.27 2405.69) scale(1.04 1)"><tspan class="st17" x="0" y="0">esencial</tspan><tspan class="st7" x="149.79" y="0">.</tspan><tspan class="st6" x="159.04" y="0">work</tspan></text>
  <path class="st2" d="M856.38,2342.43l-16.42-29.2h94.62v11.28h-76.83l10.65,17.92h-12.03Z"/>
  <path class="st2" d="M856.38,2363.71l-16.42-29.2h94.62v11.28h-76.83l10.65,17.92h-12.03Z"/>
  <path class="st2" d="M856.38,2383.82l-16.42-29.2h94.62v11.28h-76.83l10.65,17.92h-12.03Z"/>
  <g>
    <g>
      <path class="st12" d="M1703.06,642.07c1.74,1.09,4.8,2.25,7.74,2.25,4.27,0,6.27-2.06,6.27-4.63,0-2.7-1.67-4.18-6.01-5.72-5.8-1.99-8.54-5.08-8.54-8.81,0-5.02,4.2-9.13,11.14-9.13,3.27,0,6.14.9,7.94,1.93l-1.47,4.12c-1.27-.77-3.6-1.8-6.61-1.8-3.47,0-5.41,1.93-5.41,4.25,0,2.57,1.93,3.73,6.14,5.27,5.61,2.06,8.47,4.76,8.47,9.39,0,5.47-4.4,9.33-12.08,9.33-3.54,0-6.81-.84-9.07-2.12l1.47-4.31Z"/>
      <path class="st12" d="M1733.55,633.32c.13,7.65,5.21,10.8,11.08,10.8,4.2,0,6.74-.71,8.94-1.61l1,4.05c-2.07.9-5.6,1.93-10.74,1.93-9.94,0-15.88-6.3-15.88-15.69s5.74-16.79,15.15-16.79c10.54,0,13.35,8.94,13.35,14.66,0,1.16-.13,2.06-.2,2.64h-22.69ZM1750.77,629.27c.07-3.6-1.54-9.2-8.14-9.2-5.94,0-8.54,5.27-9.01,9.2h17.15Z"/>
      <path class="st12" d="M1763.71,625.15c0-3.22-.07-5.85-.27-8.43h5.2l.33,5.15h.13c1.6-2.96,5.34-5.85,10.68-5.85,4.47,0,11.41,2.57,11.41,13.25v18.59h-5.87v-17.94c0-5.02-1.93-9.2-7.47-9.2-3.87,0-6.87,2.64-7.87,5.79-.27.71-.4,1.67-.4,2.64v18.72h-5.87v-22.7Z"/>
      <path class="st12" d="M1823.76,646.7c-1.53.77-4.94,1.8-9.27,1.8-9.74,0-16.08-6.37-16.08-15.89s6.81-16.53,17.35-16.53c3.47,0,6.54.84,8.14,1.61l-1.33,4.37c-1.4-.77-3.6-1.48-6.81-1.48-7.41,0-11.41,5.27-11.41,11.77,0,7.2,4.8,11.64,11.21,11.64,3.34,0,5.54-.84,7.21-1.54l1,4.25Z"/>
      <path class="st12" d="M1837.17,607.98c.07,1.93-1.4,3.47-3.74,3.47-2.07,0-3.54-1.54-3.54-3.47s1.54-3.54,3.67-3.54,3.6,1.54,3.6,3.54ZM1830.63,647.85v-31.13h5.87v31.13h-5.87Z"/>
      <path class="st12" d="M1864.13,647.85l-.47-3.92h-.2c-1.8,2.44-5.27,4.63-9.88,4.63-6.54,0-9.88-4.44-9.88-8.94,0-7.53,6.94-11.64,19.42-11.58v-.64c0-2.57-.73-7.2-7.34-7.2-3,0-6.14.9-8.41,2.32l-1.33-3.73c2.67-1.67,6.54-2.77,10.61-2.77,9.88,0,12.28,6.5,12.28,12.73v11.64c0,2.7.13,5.34.53,7.46h-5.34ZM1863.26,631.97c-6.41-.13-13.68.96-13.68,7.01,0,3.67,2.54,5.4,5.54,5.4,4.2,0,6.87-2.57,7.81-5.21.2-.58.33-1.22.33-1.8v-5.4Z"/>
      <path class="st12" d="M1878.4,602.19h5.87v45.66h-5.87v-45.66Z"/>
    </g>
    <text class="st5" transform="translate(1698.99 647.85) scale(1.04 1)"><tspan x="0" y="0">sencial</tspan></text>
  </g>
  <path class="st2" d="M1693.34,594.84v9.1h-34.31c3.11,3.33,5.41,7.25,6.9,11.76h-8.26c-.78-2.38-2.25-4.96-4.42-7.74-2.17-2.79-4.7-4.7-7.6-5.73v-7.39h47.69Z"/>
  <path class="st2" d="M1691.86,614.75v9.1h-34.31c3.11,3.33,5.41,7.25,6.9,11.76h-8.26c-.78-2.38-2.25-4.96-4.42-7.74-2.17-2.79-4.7-4.7-7.6-5.73v-7.39h47.69Z"/>
  <path class="st2" d="M1691.86,635.15v9.1h-34.31c3.11,3.33,5.41,7.25,6.9,11.76h-8.26c-.78-2.38-2.25-4.96-4.42-7.74-2.17-2.79-4.7-4.7-7.6-5.73v-7.39h47.69Z"/>
  <path class="st2" d="M954.65,333.99v-128.79H280v104.5c40.95,14.67,76.77,41.71,107.48,81.12,26.63,34.18,45.84,66.18,57.65,96h-186.08v104.5c40.95,14.67,76.77,41.71,107.48,81.12,28.73,36.88,48.84,71.22,60.31,103.02h-167.79v104.5c40.95,14.67,76.77,41.71,107.48,81.12,30.71,39.42,51.56,75.93,62.56,109.54h116.87c-21.08-63.86-53.62-119.31-97.62-166.37h485.37v-128.79h-389.99c-21.12-61.11-52.89-114.41-95.38-159.85h485.37v-128.79h-371.5c-21.1-58.18-52.06-109.13-92.91-152.83h485.37Z"/>
  <text class="st3" transform="translate(1919.8 645.33) scale(1.04 1)"><tspan x="0" y="0">.work</tspan></text>
  <text class="st4" transform="translate(1452.88 1305.72) scale(1.04 1)"><tspan x="0" y="0">esencial</tspan></text>
  <rect class="st2" x="2458" y="7" width="1200" height="1200"/>
  <text class="st9" transform="translate(2969.19 648.88) scale(1.04 1)"><tspan x="0" y="0">sencial</tspan></text>
  <path class="st15" d="M2962.51,586.12v10.78h-40.62c3.68,3.94,6.41,8.58,8.17,13.92h-9.78c-.92-2.81-2.67-5.87-5.24-9.17-2.57-3.3-5.57-5.56-8.99-6.79v-8.75h56.46Z"/>
  <path class="st15" d="M2960.76,609.69v10.78h-40.62c3.68,3.94,6.41,8.58,8.17,13.92h-9.78c-.92-2.81-2.67-5.87-5.24-9.17s-5.57-5.56-8.99-6.79v-8.75h56.46Z"/>
  <path class="st15" d="M2960.76,633.84v10.78h-40.62c3.68,3.94,6.41,8.58,8.17,13.92h-9.78c-.92-2.81-2.67-5.87-5.24-9.17s-5.57-5.56-8.99-6.79v-8.75h56.46Z"/>
  <text class="st0" transform="translate(1720.59 1495.16) scale(1.04 1)"><tspan class="st17" x="0" y="0">esencial </tspan><tspan class="st8" x="167.31" y="0">.work</tspan></text>
  <text class="st13" transform="translate(904.62 -470.28)"><tspan x="0" y="0">miga</tspan></text>
  <g id="AMTgMx">
    <g>
      <g>
        <path class="st2" d="M3231.5-754c-4.66-1.3-1.59-10.46-1.51-13.51.68-26.59,2.33-53.22,4.23-79.77,2.36-16.45,37.24-15.58,45.44-7.38,6.12,6.12,10.42,31.79,14.35,40.65l12.51-35.97c2.24-7.19,10.2-9.46,16.95-10.05,13.83-1.21,29.47.02,31.43,16.65,2.39,20.33,2.23,44.15,3.12,64.88.17,3.88,2.7,22.28.06,24.08-3.32-.07-7.61,1.41-10.57,1.43-1.7.01-3.33-.95-5.01-1-4.26-.12-13.97,1.23-16.56-2.43l-3.42-51.57c-5.73,9.53-7.94,31.68-14.49,39.51-5.01,5.98-21.36,6.49-26.67,1.15-3.8-3.82-10.7-30.59-13.6-37.91-.42-1.06-.29-2.98-1.73-2.74l-2.03,49.48c.26,1.55-3.63,4.52-4.48,4.52-5.94,0-23.79,1.18-28,0Z"/>
        <path class="st2" d="M3369.5-754c-.33-.09-1.77-1.55-1.98-2.02.43-19.5-2.34-42.23-.56-61.53.23-2.5.29-4.86,2.65-6.35,2.67-1.69,29.1-1.8,31.71-.18.52.32,1.68,2.18,1.68,2.57v66l-1.5,1.5h-32Z"/>
        <path class="st2" d="M3401.65-835.35c-7.96,8.46-29.42,7.54-34.55-4.25-10.81-24.83,25.93-36.22,36.75-17.75,3.67,6.27,2.84,16.64-2.2,22Z"/>
      </g>
      <g>
        <path d="M3272.8-901.72c34.32-.45,69.51.64,103.66.76,65.53.23,134.85-11.6,139.53,76.47,2.97,55.98-3.26,113.79-1,169.98-3.37,39.45-32.51,65.99-71.5,68.5-60.22,3.88-124.4-2.92-185.03.05-45.17-2.87-73.17-34.73-73.54-79.55-.03-3.1,1.15-5.81,1.13-8.95-.27-48.73-3.43-100.86-1.09-149.09,2.73-56.23,34.22-77.47,87.84-78.17ZM3401.65-835.35c5.04-5.36,5.88-15.73,2.2-22-10.82-18.46-47.56-7.08-36.75,17.75,5.13,11.79,26.59,12.7,34.55,4.25ZM3231.5-754c4.21,1.18,22.06,0,28,0,.85,0,4.74-2.97,4.48-4.52l2.03-49.48c1.44-.24,1.31,1.68,1.73,2.74,2.9,7.32,9.8,34.1,13.6,37.91,5.32,5.33,21.66,4.83,26.67-1.15,6.56-7.83,8.77-29.98,14.49-39.51l3.42,51.57c2.59,3.66,12.3,2.32,16.56,2.43,1.69.05,3.32,1.01,5.01,1,2.95-.02,7.25-1.5,10.57-1.43,2.64-1.8.11-20.2-.06-24.08-.89-20.73-.73-44.55-3.12-64.88-1.96-16.63-17.59-17.86-31.43-16.65-6.75.59-14.7,2.87-16.95,10.05l-12.51,35.97c-3.93-8.86-8.24-34.53-14.35-40.65-8.2-8.2-43.07-9.07-45.44,7.38-1.9,26.55-3.55,53.17-4.23,79.77-.08,3.05-3.15,12.21,1.51,13.51ZM3369.5-754h32l1.5-1.5v-66c0-.39-1.16-2.25-1.68-2.57-2.62-1.63-29.05-1.51-31.71.18-2.36,1.49-2.42,3.85-2.65,6.35-1.77,19.3.99,42.03.56,61.53.22.46,1.65,1.92,1.98,2.02ZM3337.66-710.34c13.5-13.42-12.86-28.05-23.67-31.16-48.06-13.82-92.17,18.03-82.72,69.72,6.93,37.94,43.46,52.71,78.53,44.07,26.79-6.6,40.91-30.88,37.25-57.85-.42-3.08-1.23-3.87-4.21-4.79-4.9-1.51-34.18-1.4-40.35-.69-7.45.86-6.25,9.07-5.51,15.54,1.18,10.23,10.93,5.29,18.29,6.75,7.3,1.45-1.48,12.09-5.37,14.11-44.12,22.88-60-68.46-7.85-58.93,7.14,1.3,14.21,9.01,19.55,9.54,3.47.35,13.58-3.85,16.07-6.33ZM3416-693c-25.18-3.85-58.96-.92-60.01,31.54-1.23,37.92,41.28,43.92,65.53,23.4,3.7,2.71,5.18,6.1,9.55,8.5,5.41,2.96,11.3,3.91,17.42,3.55,16.48-.97,15.67-7.62,15.38-22.35l-.85-1.15c-4.01-1.24-9.67-1.22-10.81-6.19-2.43-33.5,11.14-75.1-35.73-79.27-9.18-.82-43.53.76-49.51,7.46-4.31,4.83.1,24.17,4.98,25.99,1.47.55,16.73-4.78,20.68-5.32,11.35-1.55,24.63-1.13,23.36,13.86ZM3312-618.01c12.47,3.25,30.11,4.54,40.04-5.46,7.31-7.36,4.03-22.59-5.05-18.06-1.08.54-9.3,10.87-12.66,13.35-7.04,5.18-12.64,6.31-20.83,8.19-1.55.36-1.74-.67-1.5,1.98Z"/>
        <path class="st2" d="M3337.66-710.34c-2.49,2.47-12.59,6.67-16.07,6.33-5.34-.53-12.4-8.23-19.55-9.54-52.15-9.52-36.27,81.81,7.85,58.93,3.89-2.02,12.68-12.66,5.37-14.11-7.37-1.46-17.12,3.48-18.29-6.75-.75-6.47-1.94-14.68,5.51-15.54,6.17-.71,35.45-.82,40.35.69,2.99.92,3.8,1.71,4.21,4.79,3.66,26.96-10.46,51.25-37.25,57.85-35.07,8.64-71.6-6.13-78.53-44.07-9.44-51.7,34.67-83.54,82.72-69.72,10.81,3.11,37.17,17.73,23.67,31.16Z"/>
        <path class="st2" d="M3312-618.01c-.24-2.65-.05-1.62,1.5-1.98,8.19-1.88,13.79-3.01,20.83-8.19,3.36-2.48,11.59-12.81,12.66-13.35,9.08-4.53,12.35,10.7,5.05,18.06-9.93,10-27.57,8.71-40.04,5.46Z"/>
        <g>
          <path class="st2" d="M3416-693c1.27-14.98-12.02-15.41-23.36-13.86-3.95.54-19.21,5.87-20.68,5.32-4.88-1.82-9.3-21.16-4.98-25.99,5.98-6.7,40.33-8.27,49.51-7.46,46.87,4.17,33.3,45.77,35.73,79.27,1.15,4.97,6.8,4.95,10.81,6.19l.85,1.15c.29,14.73,1.1,21.38-15.38,22.35-6.12.36-12.01-.58-17.42-3.55-4.37-2.39-5.85-5.79-9.55-8.5-24.25,20.52-66.76,14.52-65.53-23.4,1.05-32.47,34.84-35.39,60.01-31.54ZM3397.74-672.76c-14.05,2.36-10.77,25.39,7.48,19.48,5.52-1.79,15.15-12.52,11.35-17.79-1.39-1.92-15.93-2.17-18.83-1.69Z"/>
          <path d="M3397.74-672.76c2.89-.49,17.44-.23,18.83,1.69,3.81,5.27-5.83,16-11.35,17.79-18.25,5.92-21.52-17.12-7.48-19.48Z"/>
        </g>
      </g>
    </g>
  </g>
  <g>
    <g>
      <path class="st10" d="M2871.55-633.93c-21.12,19.3-60.13,24.22-79.49.01-9.94-12.42-11.4-32.62-6.26-47.29,10.9-31.14,50.73-31.05,77.77-26.73.76-19.45-16.25-20.84-31.38-18.88-8.38,1.08-17.28,5.68-24.37,6.67-5.76.8-6.43-3.48-8.27-8.27-9.16-23.91-7.73-30.95,17.26-37.78,25.7-7.02,65.12-7.55,83.29,15.23,19.29,24.19,5.8,64.1,10.71,91.29,1.93,10.68,14.15,6.45,16.28,10.72,2.04,4.09-.16,22.83-3.48,26.55-8.75,9.8-48.47,5.65-52.05-11.53ZM2863.51-677.89c-11.16-2.1-33.82-6.58-35.86,9.54-1.99,15.75,13.18,21.2,25.24,13.25,7.97-5.26,12.41-13,10.62-22.79Z"/>
      <path class="st14" d="M2863.51-677.89c1.79,9.78-2.64,17.53-10.62,22.79-12.07,7.96-27.23,2.51-25.24-13.25,2.04-16.12,24.7-11.64,35.86-9.54Z"/>
    </g>
    <g>
      <path class="st14" d="M2392.36-834.63l493.74-.34c47.99,2.53,87.73,24.28,91.5,76.5-2.08,41.31,2.63,85.07,0,126.08-6.25,97.64-122.46,74.6-189.48,77.52-48.83,24.38-107.14,29.31-155.01-.11-75.69-3.07-154.8,4.25-230.09.09-53.65-2.96-88.52-27.48-91.5-83.5-1.79-33.73.62-68.73,1.12-102.04.05-3.09-1.28-6.25-1.14-10.04,1.82-51.3,30.17-79.42,80.86-84.16ZM2627.12-776.64c0-15.74-12.76-28.5-28.5-28.5s-28.5,12.76-28.5,28.5,12.76,28.5,28.5,28.5,28.5-12.76,28.5-28.5ZM2465.58-712.94l-21.23-63.27c-6.98-17.12-33.26-19.07-48.63-15.07s-20.81,16.62-22.13,30.87c-3.25,35.01-4.93,75.66-6.06,110.94-.14,4.39-.8,22.31,1.53,24.55,9.62,3,37.64,5.39,45.48-.53,3.8-2.87,2.84-7.8,4.01-11.99l3.03-71.48,25,65.49c8.07,10.82,35.08,10.88,41.5-2.48l22.99-67.02,8.05,84.96c4.97,8.04,39.91,7.12,44.21,2.82,3.52-3.52-.39-29.99-.75-36.28-1.93-32.97-2.96-67.16-6.02-99.98-1.25-13.46-1.52-24.07-16.21-28.79-14.64-4.7-42.57-4.84-51.63,9.92l-23.13,67.35ZM2766.56-741.92c18.48-4.78,21.53-34.35-.46-36.05-12.09-.94-17.92,4.52-24.2,13.94-41.5-17.02-103.74,1.06-98.33,54.59,1.23,12.17,8.33,21.08,15.95,29.9-13.87,10.46-20.75,26.52-14.44,43.59,9.27,25.04,63.41,30.1,85.97,29.01,4.84-.23,11.21-1.96,15.99-2.03s-1.68,8.57-2.97,10.05c-18.43,21.05-62.29,12.27-81.52-4.5-6.61-5.77-17.53-24.54-27.68-13.21-7.17,8-4.17,19.68,1.72,27.18,31.3,39.85,126.37,44.04,147.71-5.25,14.22-32.85-11.77-49.51-41.19-51.27-16.24-.97-53.53,5.81-52.54-18.96,49.68,12.73,102.86-23.3,76-76.99ZM2871.55-633.93c3.58,17.18,43.3,21.33,52.05,11.53,3.32-3.72,5.53-22.46,3.48-26.55-2.13-4.27-14.35-.04-16.28-10.72-4.91-27.19,8.58-67.1-10.71-91.29-18.17-22.78-57.59-22.26-83.29-15.23-24.99,6.83-26.42,13.87-17.26,37.78,1.84,4.79,2.51,9.07,8.27,8.27,7.1-.99,15.99-5.59,24.37-6.67,15.13-1.96,32.14-.57,31.38,18.88-27.04-4.32-66.87-4.42-77.77,26.73-5.13,14.67-3.68,34.86,6.26,47.29,19.37,24.2,58.37,19.28,79.49-.01ZM2575.88-624.25c3.87,3.48,21.61,4.56,27.23,4.36,4.36-.16,18.54-1.51,20.01-5.98l.48-103.59c-.42-3.87-.67-8.68-4.99-10.01s-31.91-1.04-37.54-.45c-2.81.29-6.1.86-7.06,3.94l-.17,108.31c.58,1.07,1.18,2.65,2.04,3.43Z"/>
      <path class="st10" d="M2465.58-712.94l23.13-67.35c9.06-14.77,36.99-14.62,51.63-9.92,14.69,4.72,14.96,15.33,16.21,28.79,3.06,32.82,4.09,67.01,6.02,99.98.37,6.29,4.27,32.76.75,36.28-4.3,4.3-39.24,5.22-44.21-2.82l-8.05-84.96-22.99,67.02c-6.42,13.36-33.43,13.3-41.5,2.48l-25-65.49-3.03,71.48c-1.17,4.19-.21,9.12-4.01,11.99-7.84,5.92-35.86,3.54-45.48.53-2.34-2.24-1.67-20.16-1.53-24.55,1.12-35.28,2.8-75.94,6.06-110.94,1.32-14.25,7.4-27.04,22.13-30.87s41.65-2.05,48.63,15.07l21.23,63.27Z"/>
      <path class="st10" d="M2575.88-624.25c-.87-.78-1.47-2.36-2.04-3.43l.17-108.31c.96-3.08,4.25-3.64,7.06-3.94,5.64-.59,33.28-.87,37.54.45s4.56,6.14,4.99,10.01l-.48,103.59c-1.47,4.47-15.65,5.82-20.01,5.98-5.62.2-23.36-.88-27.23-4.36Z"/>
      <circle class="st10" cx="2598.62" cy="-776.64" r="28.5"/>
      <rect class="st14" x="2610" y="-804" width="189" height="245"/>
    </g>
  </g>
  <path class="st2" d="M2766.34-724.05c-3.09,3.07-15.63,8.28-19.94,7.85-6.63-.66-15.4-10.22-24.26-11.84-64.73-11.82-45.02,101.54,9.74,73.15,4.83-2.51,15.73-15.71,6.67-17.51-9.15-1.82-21.24,4.31-22.71-8.38-.92-8.03-2.41-18.22,6.83-19.29,7.65-.88,44-1.02,50.08.85,3.71,1.14,4.71,2.12,5.23,5.94,4.55,33.47-12.98,63.61-46.23,71.8-43.53,10.72-88.87-7.61-97.47-54.7-11.72-64.17,43.03-103.69,102.68-86.54,13.41,3.86,46.14,22.01,29.38,38.67Z"/>
  <path class="st11" d="M1195.62-2253.01l481.9-.33c3.02,0,6.03.11,9.03.33,16,1.21,36.67,4.3,57.46,9.62,52.71,13.48,89.64,60.83,89.91,115.24.13,26.01.91,52.18.91,77.39,0,69.13-87.77,74.69-159.83,76.52-19.49.5-32.07,1.58-49,11.24-30.39,17.33-81.87,18.68-128.33-1.32-14.36-6.18-29.8-9.47-45.44-9.68-76.65-.99-186.69,4.46-253.99.74-53.65-2.96-88.52-27.48-91.5-83.5-1.79-33.73.62-68.73,1.12-102.04.05-3.09-1.28-6.25-1.14-10.04,1.59-44.89,23.49-72.02,62.91-81.29,8.51-2,17.25-2.88,25.99-2.88Z"/>
  <path class="st2" d="M1244.52-2118.21l25.55-74.39c10.01-16.31,40.86-16.15,57.03-10.96,16.23,5.21,16.52,16.93,17.91,31.8,3.38,36.25,4.52,74.02,6.65,110.43.41,6.94,4.72,36.18.83,40.07-4.75,4.75-43.34,5.76-48.83-3.11l-8.89-93.84-25.39,74.03c-7.09,14.76-36.93,14.69-45.84,2.74l-27.61-72.33-3.34,78.95c-1.29,4.63-.23,10.07-4.43,13.24-8.66,6.54-39.61,3.91-50.24.59-2.58-2.47-1.85-22.27-1.69-27.11,1.24-38.97,3.1-83.87,6.69-122.54,1.46-15.74,8.18-29.86,24.45-34.09,16.98-4.42,46.01-2.27,53.72,16.65l23.45,69.89Z"/>
  <path class="st2" d="M1366.35-2020.26c-.96-.86-1.62-2.61-2.26-3.79l.19-119.64c1.06-3.4,4.7-4.02,7.8-4.35,6.23-.65,36.76-.96,41.47.5,4.77,1.47,5.04,6.78,5.51,11.06l-.53,114.42c-1.62,4.94-17.29,6.43-22.11,6.6-6.21.22-25.81-.97-30.08-4.81Z"/>
  <circle class="st2" cx="1391.47" cy="-2188.57" r="31.48"/>
  <path class="st2" d="M1595.78-2153.82c-3.99,3.97-20.2,10.71-25.78,10.15-8.56-.85-19.9-13.21-31.36-15.3-83.66-15.28-58.19,131.24,12.59,94.54,6.25-3.24,20.33-20.31,8.62-22.63-11.82-2.35-27.46,5.58-29.35-10.83-1.2-10.38-3.12-23.55,8.83-24.93,9.89-1.14,56.88-1.31,64.73,1.1,4.79,1.47,6.09,2.74,6.76,7.68,5.88,43.26-16.78,82.22-59.75,92.8-56.27,13.86-114.86-9.84-125.98-70.7-15.15-82.94,55.61-134.02,132.71-111.85,17.34,4.98,59.63,28.45,37.97,49.98Z"/>
  <path class="st10" d="M1723.79-2038.17c-26.57,24.27-75.64,30.46-100,.02-12.51-15.63-14.34-41.03-7.88-59.48,13.71-39.18,63.82-39.06,97.83-33.62.96-24.47-20.44-26.21-39.47-23.75-10.54,1.36-21.73,7.15-30.66,8.4-7.24,1.01-8.09-4.37-10.4-10.4-11.52-30.08-9.72-38.94,21.71-47.53,32.33-8.84,81.91-9.5,104.77,19.16,24.27,30.43,7.3,80.64,13.47,114.84,2.43,13.43,17.79,8.12,20.48,13.49s-.2,28.71-4.38,33.39c-11.01,12.33-60.98,7.11-65.48-14.51ZM1713.68-2093.46c-14.04-2.64-42.54-8.27-45.11,12-2.51,19.82,16.57,26.67,31.75,16.66,10.03-6.61,15.61-16.36,13.36-28.66Z"/>
  <path class="st2" d="M1484.66-2000.19c1.49-7.77,1.18-4.69,5.91-4.43,24.98,1.35,41.94,2.71,66.32-6.35,11.65-4.33,43.65-27.16,47.18-27.81,29.69-5.52,26.57,40.75-.37,55.81-36.62,20.47-86.04,2.32-119.05-17.21Z"/>
</svg>