<?xml version="1.0" encoding="UTF-8"?>
<svg id="Layer_1" xmlns="http://www.w3.org/2000/svg" version="1.1" viewBox="0 0 1024 535">
  <!-- Generator: Adobe Illustrator 30.0.0, SVG Export Plug-In . SVG Version: 2.1.1 Build 123)  -->
  <defs>
    <style>
      .st0 {
        stroke: #000;
        stroke-miterlimit: 10;
        stroke-width: .5px;
      }
    </style>
  </defs>
  <g id="_x35_IWDl7">
    <g>
      <path class="st0" d="M373.52,50.76c.81.82-2.44,18.2-2.63,21.11-.66,9.99-.69,25.2,0,35.17.11,1.65.7,3.19.68,4.85,11.68-10.72,24.21-20.69,35.77-31.53,5.78-5.42,13.37-12.16,17.81-18.6,1.37-1.98,5.33-11,7.21-11h14.63c.21,1.04-.31,1.34-.97,1.95-1.59,1.47-6.09,3.63-8.34,5.32-15.99,12.03-32.35,28.77-47.26,42.48-1.88,1.73-9.37,7.23-10.09,8.79-.9,1.96.15,3.79.86,5.62,12.33,24.79,23.03,50.43,35.32,75.23,8.56,17.27,15.52,33.5,33.93,42.15,3.54,1.66,8.22,2.21,10.84,5.09h-10.73c-23.56,0-35.16-26.12-44-43.79-9.34-18.66-17.3-38.05-26.45-56.79-.97-1.98-7.2-15.15-8.24-15.16l-1.01,2.23c1.15,28.33-1.42,57.7,0,85.9.45,8.87,2.4,17.74,3.25,26.57l-1.3.77-14.93-.38c1.07-8.29,2.87-16.62,3.28-25,2.13-43.39-1.68-88.5,0-132.07l-3.24-27.35c-.15-.54.66-1.56.94-1.56h14.63Z"/>
      <g>
        <path class="st0" d="M492.85,303.73c.54.16.93,1.01,1,1.62.25,2.44-1.69,9.8-1.96,13.02-1.22,14.5-.69,29.36-.33,43.89,1.8-1.14,3.94-2.82,5.53-4.22,11.88-10.53,25.19-22.11,36.33-33.29,6.2-6.22,11.89-12.95,16.66-20.37h14.96c.29,0,.18-.77.98-.33.96.53.61.72-.01,1.29-1,.91-3.69,1.75-5.14,2.67-21.98,14.01-39.62,34.99-59.91,51.28l-1.28,2.58c13.01,26.2,24.63,53.16,37.91,79.21,7.04,13.81,14.05,29.07,28.41,36.62,4.24,2.23,9.49,3.13,13.02,6.16h-13.33c-19.74,0-34.8-32.27-42.04-47.05-10.65-21.72-19.74-44.28-31.45-65.45-1.59-.27-.76.76-.94,1.64-1.51,7.16-.06,13.25,0,20.12.22,21.83-1.09,44.73-.06,66.38.31,6.39,3,16.69,2.69,22.08-.04.74-.02,1.54-.7,2-.49.38-.83-.38-.98-.38h-13.33l2.63-32.16-.61-80.73c0-16.56,1.43-33.44-.07-49.99-.5-5.51-1.81-11.12-2.59-16.59h14.63Z"/>
        <path class="st0" d="M732.48,483.2h-15.93l-.85-1.1c-1.83-15.38-6.79-30.33-12.91-44.44l-78.75.45c-1.23.5-3.6,8.82-4.22,10.78-1.35,4.23-5.03,15.88-5.03,19.68v13.66l-.98.98h-11.38c1.12-4.74,4.11-9.27,5.97-13.86,1.13-2.79,2.1-5.73,3.14-8.56,18.88-51.1,33.39-104.21,51.98-155.46.37-1.99,2.99-3.04,4.61-1.95,1.03.69,6.72,20.43,7.75,23.46,14.81,43.59,29.45,89,45.53,131.99,3.16,8.45,7.28,16.22,11.07,24.37ZM625.18,435.08h76.73l-39.35-113.8-37.38,113.8Z"/>
      </g>
      <g>
        <path class="st0" d="M761.42,483.85l-.85-1.46c1.07-7.38,2.76-14.77,3.15-22.24,2.5-47.51-1.28-97.87-.83-145.54l-4.73-9.59.65-1.13,15.87.56,54.36,156.01,1.69-.39,48.4-153.07c.64-4.32,6.88-3.37,10.44-3.26.85.03,4.18.06,4.54.61l-3.32,11.71c.31,52.29-4.5,108.4,1.02,160.32.23,2.19.68,4.72,1.29,6.84h-15.61c.58-7.89,2.24-15.81,2.63-23.71,1.99-40.39-1.57-82.4,0-122.96l-1-13.96-52.03,161.27c-1.29.3-2.76-4.18-3.22-5.22-21.48-48.37-33.42-103.95-54.68-152.11-.36-.8-.62-2.61-1.58-2.63.11,4.87-.17,9.78-.03,14.65,1.05,38.04-1.14,77.41.65,115.1.14,2.84.43,6.85.76,9.64.62,5.28,3.85,14.66,3.69,19.1-.03.79-.24,1-.85,1.47h-10.4Z"/>
        <path class="st0" d="M928.87,303.73h14.63c.32,0,1.07,1.07,1,1.62l-2.65,19.49c1.7,44.65-2.17,90.85,0,135.32.3,6.19,2.99,16.26,2.69,21.43-.2,3.37-1.61,1.46-3.59,1.59-2.23.15-10.1,1.34-11.46.4-1.47-1.01,1.36-12.51,1.33-15-.91-47.01,3.42-96.96.68-143.73-.41-7.08-2.62-14.03-2.63-21.11Z"/>
      </g>
      <g>
        <path class="st0" d="M386.61,393.77c0,51.61-41.83,93.44-93.44,93.44s-93.44-41.83-93.44-93.44,41.83-93.44,93.44-93.44,93.44,41.83,93.44,93.44ZM233.33,326.73c-59.16,61.47,4.83,176.7,87.01,153.03,76.2-21.95,70.07-131.6,4.98-165.23-28.93-14.95-68.84-11.86-92,12.2Z"/>
        <path class="st0" d="M62.69,483.2c1.39-8.57,3.48-16.94,3.93-25.66,2.35-45.67-1.83-93.33,0-139.21-.15-5.53-4.05-9.67-5.87-14.6l14.64.64,87.77,155.43c-.51-8.3-.35-16.72-.35-25.07.02-34.48,1.88-72.36.05-106.65-.44-8.29-2.61-16.21-3.93-24.36h10.73c.7,0,.97,1.43.94,2.18-.21,5.42-3.2,12.53-3.25,18.28l-.28,159.04c-.9,1.38-3.25-.03-4.04-.87-3.6-3.81-10.98-17.88-14.12-23.28-20.39-35.11-39.13-71.26-59.32-106.5-6.05-10.57-12.02-21.43-19.1-31.29l-.03,138.86,3.93,23.06h-11.71Z"/>
      </g>
      <path class="st0" d="M666.81,144.1c0,53.19-43.12,96.31-96.31,96.31s-96.31-43.12-96.31-96.31,43.12-96.31,96.31-96.31,96.31,43.12,96.31,96.31ZM556.77,52.91c-77.98,6.7-92.01,108.48-40.53,157.19,56.4,53.37,139.37,18.16,139.91-59.41.37-53.72-43.91-102.55-99.38-97.79Z"/>
      <g>
        <path class="st0" d="M695.41,236.75c.22-8.23,2.21-16.86,2.63-25.01,2.32-45.25-1.82-92.46,0-137.92l-.15-22.03c.4-1.05,1.27-.96,2.16-1.06,12.48-1.35,40.04-.82,51.94,2.3,58.49,15.34,57.93,104.82-15.36,107.57-2.37.09-5.35-1.32-8.06.38l50.46,62.04c3.21,2.63,5.81,5.3,9.41,7.49,4.24,2.58,9.36,3.67,12.95,6.88h-10.73c-12.06,0-19.22-7.51-26.32-15.95-13.65-16.24-26.91-34.8-39.94-51.75-1.26-1.64-4.35-6.95-5.28-7.73-1.99-1.67-8.16-1.21-10.73-1.31.84,18.04-1.11,37.06-.02,54.98.4,6.57,2.37,13.15,2.36,19.78,0,.76-.05.84-.71,1.33h-14.63ZM737.36,54.02h-27.64l-1.3,103.4c25.28.26,50.92,3.98,65.96-20.86,19.05-31.47,2.13-79.08-37.01-82.53Z"/>
        <path class="st0" d="M1006.18,144.33c0,53.09-43.04,96.14-96.14,96.14s-96.14-43.04-96.14-96.14,43.04-96.14,96.14-96.14,96.14,43.04,96.14,96.14ZM972.82,211.79c47.77-50.14,15.68-141.93-50.44-156.81-74.13-16.68-115.77,59.67-88.57,123.03,23.46,54.66,94.45,80.54,139.01,33.78Z"/>
      </g>
      <g>
        <path class="st0" d="M325.28,144.26c0,53.13-43.07,96.21-96.21,96.21s-96.21-43.07-96.21-96.21,43.07-96.21,96.21-96.21,96.21,43.07,96.21,96.21ZM215.37,52.91c-46.6,4.22-74.04,44.98-71.42,89.9,3.77,64.64,72.86,118.27,133.53,80.81,75.53-46.64,27.7-178.83-62.11-170.71Z"/>
        <path class="st0" d="M32.45,50.76l.85,1.46c-3.62,19.87-3.89,40.2-2.47,60.31l40.97-36.08c2.91-3.39,6.95-6.37,9.76-9.75,4.16-5,6.09-10.93,10.06-15.95h14.96c.08,0,1.3.94.66,1.3-5.72,3.49-11.1,7.44-16.25,11.72-13.95,11.61-27.82,25.1-41.3,37.38-2.85,2.59-10.62,7.17-10.47,11.03.06,1.59,5.33,12.59,6.44,15.09,11.53,25.9,26.78,63.16,41.85,86.26,10.01,15.34,15.79,16.01,31.62,22.38.99.4,1.75-.38,1.43,1.47h-11.38c-22.58,0-33.82-23.1-42.41-40.18-11.84-23.56-21.68-48.18-33.66-71.69l-2.94-3.23-.03,71.88c1.39,6.82.31,13.86.68,20.78.39,7.29,2.05,14.52,2.59,21.79h-15.61c.39-8.16,2.25-16.19,2.63-24.35,2.09-45.17-1.65-91.93,0-137.27l-2.63-24.36h14.63Z"/>
      </g>
    </g>
  </g>
</svg>