<?xml version="1.0" encoding="UTF-8"?>
<svg id="Layer_1" xmlns="http://www.w3.org/2000/svg" xmlns:xlink="http://www.w3.org/1999/xlink" version="1.1" viewBox="0 0 1200 1200">
  <!-- Generator: Adobe Illustrator 30.0.0, SVG Export Plug-In . SVG Version: 2.1.1 Build 123)  -->
  <defs>
    <style>
      .st0 {
        fill: url(#linear-gradient2);
      }

      .st1 {
        fill: url(#linear-gradient1);
      }

      .st2 {
        fill: url(#linear-gradient3);
      }

      .st3 {
        fill: url(#linear-gradient6);
      }

      .st4 {
        fill: url(#linear-gradient5);
      }

      .st5 {
        fill: url(#linear-gradient4);
      }

      .st6 {
        font-size: 64.32px;
      }

      .st6, .st7, .st8, .st9, .st10, .st11 {
        isolation: isolate;
      }

      .st6, .st7, .st9, .st10, .st11 {
        font-family: PangeaTrial-SemiBold, 'Pangea Trial';
        font-weight: 600;
      }

      .st6, .st7, .st10, .st12, .st11 {
        fill: #fff;
      }

      .st7 {
        font-size: 46.93px;
      }

      .st13 {
        fill: url(#linear-gradient);
      }

      .st9 {
        font-size: 76.14px;
      }

      .st9, .st14 {
        fill: #191919;
      }

      .st10 {
        font-size: 44.68px;
      }

      .st15 {
        fill: #1f2021;
      }

      .st11 {
        font-size: 67.91px;
      }

      .st16 {
        fill: #161616;
      }
    </style>
    <linearGradient id="linear-gradient" x1="1698.99" y1="44.28" x2="1920.91" y2="44.28" gradientTransform="translate(0 588)" gradientUnits="userSpaceOnUse">
      <stop offset="0" stop-color="#fff"/>
      <stop offset="1" stop-color="#000"/>
    </linearGradient>
    <linearGradient id="linear-gradient1" x1="1698.99" y1="44.25" x2="1920.91" y2="44.25" gradientTransform="translate(0 588)" gradientUnits="userSpaceOnUse">
      <stop offset="0" stop-color="#fff"/>
      <stop offset="1" stop-color="#000"/>
    </linearGradient>
    <linearGradient id="linear-gradient2" x1="1698.99" y1="43.95" x2="1920.91" y2="43.95" gradientTransform="translate(0 588)" gradientUnits="userSpaceOnUse">
      <stop offset="0" stop-color="#fff"/>
      <stop offset="1" stop-color="#000"/>
    </linearGradient>
    <linearGradient id="linear-gradient3" x1="1698.99" y1="44.29" x2="1920.91" y2="44.29" gradientTransform="translate(0 588)" gradientUnits="userSpaceOnUse">
      <stop offset="0" stop-color="#fff"/>
      <stop offset="1" stop-color="#000"/>
    </linearGradient>
    <linearGradient id="linear-gradient4" x1="1698.99" y1="38.14" x2="1920.91" y2="38.14" gradientTransform="translate(0 588)" gradientUnits="userSpaceOnUse">
      <stop offset="0" stop-color="#fff"/>
      <stop offset="1" stop-color="#000"/>
    </linearGradient>
    <linearGradient id="linear-gradient5" x1="1698.99" y1="44.29" x2="1920.91" y2="44.29" gradientTransform="translate(0 588)" gradientUnits="userSpaceOnUse">
      <stop offset="0" stop-color="#fff"/>
      <stop offset="1" stop-color="#000"/>
    </linearGradient>
    <linearGradient id="linear-gradient6" x1="1698.99" y1="37.02" x2="1920.91" y2="37.02" gradientTransform="translate(0 588)" gradientUnits="userSpaceOnUse">
      <stop offset="0" stop-color="#fff"/>
      <stop offset="1" stop-color="#000"/>
    </linearGradient>
  </defs>
  <rect class="st16" x="1229" width="1200" height="1200"/>
  <g class="st8">
    <g class="st8">
      <path class="st12" d="M-871.89,775.74c2.04,0,3.88.48,5.51,1.43s2.9,2.29,3.83,4.02,1.39,3.72,1.39,5.99c0,.51-.02.86-.05,1.07h-19.7v-2.95h17.43l-1.72,2.01c0-2.71-.61-4.77-1.84-6.17-1.22-1.4-2.86-2.1-4.9-2.1-2.2,0-3.94.74-5.23,2.21-1.29,1.47-1.93,3.52-1.93,6.14,0,1.76.31,3.26.93,4.51s1.48,2.2,2.58,2.84,2.35.96,3.74.96c1.64,0,3.07-.39,4.3-1.16,1.22-.77,2.19-2.03,2.9-3.75l3.39,1.34c-1.02,2.44-2.46,4.22-4.32,5.34-1.86,1.12-3.97,1.68-6.32,1.68-2.14,0-4.07-.49-5.79-1.47s-3.06-2.37-4.02-4.16-1.44-3.83-1.44-6.12.48-4.37,1.44-6.14,2.29-3.13,4-4.09c1.7-.95,3.64-1.43,5.81-1.43h0Z"/>
      <path class="st12" d="M-842.85,783.7c-.31-1.61-1.02-2.78-2.14-3.51s-2.48-1.09-4.09-1.09c-1.36,0-2.49.27-3.37.8s-1.32,1.22-1.32,2.06c0,.89.42,1.59,1.25,2.1.84.51,2.06.95,3.67,1.34l.19.04,2.37.58c2.48.6,4.3,1.42,5.46,2.48s1.74,2.42,1.74,4.09c0,1.25-.39,2.38-1.16,3.37-.77,1-1.87,1.78-3.3,2.35-1.43.57-3.07.85-4.93.85-2.54,0-4.72-.58-6.53-1.74-1.81-1.16-3.04-2.99-3.69-5.5l3.39-.94c.4,1.64,1.22,2.85,2.44,3.64,1.22.79,2.67,1.18,4.34,1.18s2.96-.29,3.95-.87,1.49-1.33,1.49-2.26c0-.86-.4-1.54-1.19-2.03-.79-.49-2.11-.96-3.97-1.41l-2.37-.54c-2.48-.62-4.29-1.49-5.44-2.59-1.15-1.1-1.72-2.47-1.72-4.11,0-1.22.36-2.3,1.09-3.24.73-.94,1.75-1.68,3.07-2.21,1.32-.54,2.83-.8,4.53-.8,2.51,0,4.66.62,6.46,1.85,1.8,1.24,2.87,3.02,3.21,5.34l-3.44.76h0Z"/>
      <path class="st12" d="M-825.06,775.74c2.04,0,3.88.48,5.51,1.43s2.9,2.29,3.83,4.02,1.39,3.72,1.39,5.99c0,.51-.02.86-.05,1.07h-19.7v-2.95h17.43l-1.72,2.01c0-2.71-.61-4.77-1.84-6.17-1.22-1.4-2.86-2.1-4.9-2.1-2.2,0-3.94.74-5.23,2.21-1.29,1.47-1.93,3.52-1.93,6.14,0,1.76.31,3.26.93,4.51s1.48,2.2,2.58,2.84,2.35.96,3.74.96c1.64,0,3.07-.39,4.3-1.16,1.22-.77,2.19-2.03,2.9-3.75l3.39,1.34c-1.02,2.44-2.46,4.22-4.32,5.34-1.86,1.12-3.97,1.68-6.32,1.68-2.14,0-4.07-.49-5.79-1.47s-3.06-2.37-4.02-4.16-1.44-3.83-1.44-6.12.48-4.37,1.44-6.14,2.29-3.13,4-4.09c1.7-.95,3.64-1.43,5.81-1.43h0Z"/>
      <path class="st12" d="M-806.28,776.15v22.56h-4v-22.56h4ZM-799.13,775.74c1.7,0,3.22.37,4.55,1.09,1.33.73,2.37,1.76,3.11,3.11.74,1.34,1.12,2.89,1.12,4.65v14.12h-4v-13.54c0-1.82-.52-3.27-1.56-4.36-1.04-1.09-2.39-1.63-4.07-1.63-1.86,0-3.38.56-4.55,1.68-1.18,1.12-1.77,2.6-1.77,4.45l-1.35.04c0-2.2.4-4.02,1.19-5.45s1.83-2.48,3.11-3.15c1.29-.67,2.69-1.01,4.21-1.01h.01Z"/>
      <path class="st12" d="M-775.2,799.11c-2.14,0-4.07-.5-5.79-1.5s-3.07-2.38-4.07-4.16c-.99-1.77-1.49-3.79-1.49-6.05s.5-4.28,1.49-6.05c.99-1.77,2.35-3.15,4.07-4.13,1.72-.98,3.65-1.47,5.79-1.47,2.54,0,4.76.62,6.67,1.85,1.91,1.24,3.32,3.19,4.25,5.88l-3.58,1.34c-.68-1.97-1.63-3.4-2.83-4.29-1.21-.89-2.71-1.34-4.51-1.34-1.33,0-2.55.33-3.65.98-1.1.66-1.98,1.6-2.63,2.84-.65,1.24-.98,2.7-.98,4.4s.33,3.21.98,4.45c.65,1.24,1.53,2.17,2.63,2.81s2.32.96,3.65.96c1.8,0,3.3-.44,4.51-1.32s2.15-2.3,2.83-4.27l3.58,1.34c-.93,2.68-2.35,4.64-4.25,5.88s-4.13,1.85-6.67,1.85h0Z"/>
      <path class="st12" d="M-758.94,771.77c-.81,0-1.47-.25-2-.74s-.79-1.14-.79-1.94c0-.74.26-1.37.79-1.88.53-.51,1.19-.76,2-.76s1.49.25,2.04.76.84,1.13.84,1.88c0,.8-.27,1.45-.81,1.94s-1.23.74-2.07.74ZM-756.94,776.15v22.56h-4v-22.56h4Z"/>
      <path class="st12" d="M-743.79,799.16c-1.7,0-3.27-.28-4.69-.83-1.43-.55-2.56-1.35-3.39-2.39-.84-1.04-1.25-2.29-1.25-3.75s.43-2.67,1.28-3.71,2-1.84,3.44-2.39,3.03-.83,4.76-.83c2.76,0,4.89.6,6.39,1.81s2.25,2.85,2.25,4.94c0,2.29-.76,4.06-2.28,5.29-1.52,1.24-3.69,1.85-6.51,1.85h0ZM-736.45,798.71v-4.24l.05-.63v-4.11l-.14-.27v-4.47c0-2-.58-3.46-1.74-4.4s-2.66-1.41-4.48-1.41c-1.58,0-2.93.4-4.04,1.18s-1.86,1.85-2.23,3.19l-3.39-1.21c.56-2.12,1.71-3.75,3.46-4.89,1.75-1.15,3.83-1.72,6.25-1.72,1.83,0,3.51.31,5.04.94,1.53.63,2.77,1.6,3.72,2.93.94,1.33,1.42,2.99,1.42,4.98v14.12h-3.92ZM-742.67,796.12c1.83,0,3.32-.34,4.48-1.03,1.16-.68,1.74-1.65,1.74-2.9s-.58-2.22-1.74-2.9c-1.16-.68-2.66-1.03-4.48-1.03s-3.42.33-4.6,1-1.77,1.65-1.77,2.93.59,2.26,1.77,2.93,2.71,1,4.6,1h0Z"/>
      <path class="st12" d="M-721.48,798.71c-1.95,0-3.45-.55-4.51-1.65-1.05-1.1-1.58-2.56-1.58-4.38v-25.24h4v25.02c0,.95.21,1.67.63,2.14.42.48,1.09.71,2.02.71h1.95v3.4h-2.51Z"/>
    </g>
    <g class="st8">
      <text class="st10" transform="translate(-728.8 798.71) scale(1.04 1)"><tspan x="0" y="0">.</tspan></text>
    </g>
    <g class="st8">
      <text class="st10" transform="translate(-719.18 798.71) scale(1.04 1)"><tspan x="0" y="0">work</tspan></text>
    </g>
  </g>
  <g class="st8">
    <g class="st8">
      <path class="st12" d="M967.96,2382.72c2.04,0,3.88.48,5.51,1.43s2.9,2.29,3.83,4.02,1.39,3.72,1.39,5.99c0,.51-.02.86-.05,1.07h-19.7v-2.95h17.42l-1.72,2.01c0-2.71-.61-4.77-1.84-6.17-1.22-1.4-2.86-2.1-4.9-2.1-2.2,0-3.94.74-5.23,2.21s-1.93,3.52-1.93,6.14c0,1.76.31,3.26.93,4.51s1.48,2.2,2.58,2.84,2.35.96,3.74.96c1.64,0,3.07-.39,4.3-1.16,1.22-.77,2.19-2.03,2.9-3.75l3.39,1.34c-1.02,2.44-2.46,4.22-4.32,5.34s-3.97,1.68-6.32,1.68c-2.14,0-4.07-.49-5.79-1.47s-3.06-2.37-4.02-4.16c-.96-1.79-1.44-3.83-1.44-6.12s.48-4.37,1.44-6.14c.96-1.77,2.29-3.13,4-4.09,1.7-.95,3.64-1.43,5.81-1.43h.02Z"/>
      <path class="st12" d="M997,2390.68c-.31-1.61-1.02-2.78-2.14-3.51s-2.48-1.09-4.09-1.09c-1.36,0-2.49.27-3.37.8s-1.32,1.22-1.32,2.06c0,.89.42,1.59,1.25,2.1.84.51,2.06.95,3.67,1.34l.19.04,2.37.58c2.48.6,4.3,1.42,5.46,2.48,1.16,1.06,1.74,2.42,1.74,4.09,0,1.25-.39,2.38-1.16,3.37-.77,1-1.87,1.78-3.3,2.35s-3.07.85-4.93.85c-2.54,0-4.72-.58-6.53-1.74-1.81-1.16-3.04-2.99-3.69-5.5l3.39-.94c.4,1.64,1.21,2.85,2.44,3.64,1.22.79,2.67,1.18,4.34,1.18s2.96-.29,3.95-.87,1.49-1.33,1.49-2.26c0-.86-.4-1.54-1.18-2.03-.79-.49-2.11-.96-3.97-1.41l-2.37-.54c-2.48-.62-4.29-1.49-5.44-2.59s-1.72-2.47-1.72-4.11c0-1.22.36-2.3,1.09-3.24.73-.94,1.75-1.68,3.07-2.21,1.32-.54,2.83-.8,4.53-.8,2.51,0,4.66.62,6.46,1.85,1.8,1.24,2.86,3.02,3.21,5.34l-3.44.76h0Z"/>
      <path class="st12" d="M1014.79,2382.72c2.04,0,3.88.48,5.51,1.43s2.9,2.29,3.83,4.02c.93,1.73,1.39,3.72,1.39,5.99,0,.51-.02.86-.05,1.07h-19.7v-2.95h17.42l-1.72,2.01c0-2.71-.61-4.77-1.84-6.17-1.22-1.4-2.86-2.1-4.9-2.1-2.2,0-3.94.74-5.23,2.21s-1.93,3.52-1.93,6.14c0,1.76.31,3.26.93,4.51s1.48,2.2,2.58,2.84,2.35.96,3.74.96c1.64,0,3.07-.39,4.3-1.16,1.22-.77,2.19-2.03,2.9-3.75l3.39,1.34c-1.02,2.44-2.46,4.22-4.32,5.34s-3.97,1.68-6.32,1.68c-2.14,0-4.07-.49-5.79-1.47s-3.06-2.37-4.02-4.16c-.96-1.79-1.44-3.83-1.44-6.12s.48-4.37,1.44-6.14c.96-1.77,2.29-3.13,4-4.09,1.7-.95,3.64-1.43,5.81-1.43h.02Z"/>
      <path class="st12" d="M1033.57,2383.13v22.56h-4v-22.56h4ZM1040.72,2382.72c1.7,0,3.22.37,4.55,1.09,1.33.73,2.37,1.76,3.11,3.11s1.12,2.89,1.12,4.65v14.12h-4v-13.54c0-1.82-.52-3.27-1.56-4.36s-2.39-1.63-4.07-1.63c-1.86,0-3.38.56-4.55,1.68-1.18,1.12-1.77,2.6-1.77,4.45l-1.35.04c0-2.2.4-4.02,1.19-5.45.79-1.43,1.83-2.48,3.11-3.15,1.29-.67,2.69-1.01,4.21-1.01h.01Z"/>
      <path class="st12" d="M1064.65,2406.09c-2.14,0-4.07-.5-5.79-1.5-1.72-1-3.07-2.38-4.07-4.16-.99-1.77-1.49-3.79-1.49-6.05s.5-4.28,1.49-6.05,2.35-3.15,4.07-4.13,3.65-1.47,5.79-1.47c2.54,0,4.76.62,6.67,1.85,1.91,1.24,3.32,3.19,4.25,5.88l-3.58,1.34c-.68-1.97-1.63-3.4-2.83-4.29s-2.71-1.34-4.51-1.34c-1.33,0-2.55.33-3.65.98s-1.97,1.6-2.62,2.84-.98,2.7-.98,4.4.33,3.21.98,4.45,1.53,2.17,2.62,2.81c1.1.64,2.32.96,3.65.96,1.8,0,3.3-.44,4.51-1.32,1.21-.88,2.15-2.3,2.83-4.27l3.58,1.34c-.93,2.68-2.35,4.64-4.25,5.88-1.91,1.24-4.13,1.85-6.67,1.85Z"/>
      <path class="st12" d="M1080.92,2378.75c-.81,0-1.47-.25-2-.74s-.79-1.14-.79-1.94c0-.74.26-1.37.79-1.88.53-.51,1.19-.76,2-.76s1.49.25,2.04.76.84,1.13.84,1.88c0,.8-.27,1.45-.81,1.94s-1.23.74-2.07.74ZM1082.91,2383.13v22.56h-4v-22.56h4Z"/>
      <path class="st12" d="M1096.06,2406.14c-1.7,0-3.27-.28-4.69-.83s-2.56-1.35-3.39-2.39c-.84-1.04-1.25-2.29-1.25-3.75s.43-2.67,1.28-3.71,2-1.84,3.44-2.39c1.44-.55,3.03-.83,4.76-.83,2.76,0,4.89.6,6.39,1.81s2.25,2.85,2.25,4.94c0,2.29-.76,4.06-2.28,5.29-1.52,1.24-3.69,1.85-6.51,1.85h0ZM1103.4,2405.69v-4.24l.05-.63v-4.11l-.14-.27v-4.47c0-2-.58-3.46-1.74-4.4s-2.66-1.41-4.48-1.41c-1.58,0-2.93.4-4.04,1.18s-1.86,1.85-2.23,3.19l-3.39-1.21c.56-2.12,1.71-3.75,3.46-4.89,1.75-1.15,3.83-1.72,6.25-1.72,1.83,0,3.51.31,5.04.94s2.77,1.6,3.72,2.93c.94,1.33,1.42,2.99,1.42,4.98v14.12h-3.92ZM1097.18,2403.1c1.83,0,3.32-.34,4.48-1.03,1.16-.68,1.74-1.65,1.74-2.9s-.58-2.22-1.74-2.9-2.66-1.03-4.48-1.03-3.42.33-4.6,1c-1.18.67-1.77,1.65-1.77,2.93s.59,2.26,1.77,2.93,2.71,1,4.6,1Z"/>
      <path class="st12" d="M1118.37,2405.69c-1.95,0-3.45-.55-4.51-1.65-1.05-1.1-1.58-2.56-1.58-4.38v-25.24h4v25.02c0,.95.21,1.67.63,2.14.42.48,1.09.71,2.02.71h1.95v3.4h-2.51Z"/>
    </g>
    <g class="st8">
      <text class="st10" transform="translate(1111.05 2405.69) scale(1.04 1)"><tspan x="0" y="0">.</tspan></text>
    </g>
    <g class="st8">
      <text class="st10" transform="translate(1120.67 2405.69) scale(1.04 1)"><tspan x="0" y="0">work</tspan></text>
    </g>
  </g>
  <path class="st12" d="M856.38,2342.43l-16.42-29.2h94.62v11.28h-76.83l10.65,17.92h-12.03.01Z"/>
  <path class="st12" d="M856.38,2363.71l-16.42-29.2h94.62v11.28h-76.83l10.65,17.92h-12.03.01Z"/>
  <path class="st12" d="M856.38,2383.82l-16.42-29.2h94.62v11.28h-76.83l10.65,17.92h-12.03.01Z"/>
  <g>
    <g>
      <path class="st13" d="M1703.06,642.07c1.74,1.09,4.8,2.25,7.74,2.25,4.27,0,6.27-2.06,6.27-4.63,0-2.7-1.67-4.18-6.01-5.72-5.8-1.99-8.54-5.08-8.54-8.81,0-5.02,4.2-9.13,11.14-9.13,3.27,0,6.14.9,7.94,1.93l-1.47,4.12c-1.27-.77-3.6-1.8-6.61-1.8-3.47,0-5.41,1.93-5.41,4.25,0,2.57,1.93,3.73,6.14,5.27,5.61,2.06,8.47,4.76,8.47,9.39,0,5.47-4.4,9.33-12.08,9.33-3.54,0-6.81-.84-9.07-2.12l1.47-4.31.02-.02h0Z"/>
      <path class="st1" d="M1733.55,633.32c.13,7.65,5.21,10.8,11.08,10.8,4.2,0,6.74-.71,8.94-1.61l1,4.05c-2.07.9-5.6,1.93-10.74,1.93-9.94,0-15.88-6.3-15.88-15.69s5.74-16.79,15.15-16.79c10.54,0,13.35,8.94,13.35,14.66,0,1.16-.13,2.06-.2,2.64h-22.7ZM1750.77,629.27c.07-3.6-1.54-9.2-8.14-9.2-5.94,0-8.54,5.27-9.01,9.2h17.15Z"/>
      <path class="st0" d="M1763.71,625.15c0-3.22-.07-5.85-.27-8.43h5.2l.33,5.15h.13c1.6-2.96,5.34-5.85,10.68-5.85,4.47,0,11.41,2.57,11.41,13.25v18.59h-5.87v-17.94c0-5.02-1.93-9.2-7.47-9.2-3.87,0-6.87,2.64-7.87,5.79-.27.71-.4,1.67-.4,2.64v18.72h-5.87v-22.72h0Z"/>
      <path class="st2" d="M1823.76,646.7c-1.53.77-4.94,1.8-9.27,1.8-9.74,0-16.08-6.37-16.08-15.89s6.81-16.53,17.35-16.53c3.47,0,6.54.84,8.14,1.61l-1.33,4.37c-1.4-.77-3.6-1.48-6.81-1.48-7.41,0-11.41,5.27-11.41,11.77,0,7.2,4.8,11.64,11.21,11.64,3.34,0,5.54-.84,7.21-1.54l1,4.25h0Z"/>
      <path class="st5" d="M1837.17,607.98c.07,1.93-1.4,3.47-3.74,3.47-2.07,0-3.54-1.54-3.54-3.47s1.54-3.54,3.67-3.54,3.6,1.54,3.6,3.54h.01ZM1830.63,647.85v-31.13h5.87v31.13h-5.87Z"/>
      <path class="st4" d="M1864.13,647.85l-.47-3.92h-.2c-1.8,2.44-5.27,4.63-9.88,4.63-6.54,0-9.88-4.44-9.88-8.94,0-7.53,6.94-11.64,19.42-11.58v-.64c0-2.57-.73-7.2-7.34-7.2-3,0-6.14.9-8.41,2.32l-1.33-3.73c2.67-1.67,6.54-2.77,10.61-2.77,9.88,0,12.28,6.5,12.28,12.73v11.64c0,2.7.13,5.34.53,7.46h-5.34,0ZM1863.26,631.97c-6.41-.13-13.68.96-13.68,7.01,0,3.67,2.54,5.4,5.54,5.4,4.2,0,6.87-2.57,7.81-5.21.2-.58.33-1.22.33-1.8v-5.4Z"/>
      <path class="st3" d="M1878.4,602.19h5.87v45.66h-5.87v-45.66Z"/>
    </g>
    <g class="st8">
      <g class="st8">
        <text class="st6" transform="translate(1698.99 647.85) scale(1.04 1)"><tspan x="0" y="0">sencial</tspan></text>
      </g>
    </g>
  </g>
  <path class="st12" d="M1693.34,594.84v9.1h-34.31c3.11,3.33,5.41,7.25,6.9,11.76h-8.26c-.78-2.38-2.25-4.96-4.42-7.74-2.17-2.79-4.7-4.7-7.6-5.73v-7.39h47.69Z"/>
  <path class="st12" d="M1691.86,614.75v9.1h-34.31c3.11,3.33,5.41,7.25,6.9,11.76h-8.26c-.78-2.38-2.25-4.96-4.42-7.74-2.17-2.79-4.7-4.7-7.6-5.73v-7.39h47.69Z"/>
  <path class="st12" d="M1691.86,635.15v9.1h-34.31c3.11,3.33,5.41,7.25,6.9,11.76h-8.26c-.78-2.38-2.25-4.96-4.42-7.74-2.17-2.79-4.7-4.7-7.6-5.73v-7.39h47.69Z"/>
  <g class="st8">
    <g class="st8">
      <text class="st6" transform="translate(1919.8 645.33) scale(1.04 1)"><tspan x="0" y="0">.work</tspan></text>
    </g>
  </g>
  <g class="st8">
    <g class="st8">
      <text class="st11" transform="translate(1452.88 1305.72) scale(1.04 1)"><tspan x="0" y="0">esencial</tspan></text>
    </g>
  </g>
  <rect class="st12" x="2458" y="7" width="1200" height="1200"/>
  <g class="st8">
    <g class="st8">
      <text class="st9" transform="translate(2969.19 648.88) scale(1.04 1)"><tspan x="0" y="0">sencial</tspan></text>
    </g>
  </g>
  <path class="st14" d="M2962.51,586.12v10.78h-40.62c3.68,3.94,6.41,8.58,8.17,13.92h-9.78c-.92-2.81-2.67-5.87-5.24-9.17s-5.57-5.56-8.99-6.79v-8.75h56.46Z"/>
  <path class="st14" d="M2960.76,609.69v10.78h-40.62c3.68,3.94,6.41,8.58,8.17,13.92h-9.78c-.92-2.81-2.67-5.87-5.24-9.17s-5.57-5.56-8.99-6.79v-8.75h56.46Z"/>
  <path class="st14" d="M2960.76,633.84v10.78h-40.62c3.68,3.94,6.41,8.58,8.17,13.92h-9.78c-.92-2.81-2.67-5.87-5.24-9.17s-5.57-5.56-8.99-6.79v-8.75h56.46Z"/>
  <g class="st8">
    <g class="st8">
      <path class="st12" d="M1733.91,1471.04c2.15,0,4.08.5,5.78,1.5,1.71,1,3.05,2.41,4.03,4.22.98,1.81,1.46,3.91,1.46,6.29,0,.53-.02.91-.05,1.13h-20.69v-3.1h18.3l-1.81,2.11c0-2.85-.64-5.01-1.93-6.48s-3-2.21-5.15-2.21c-2.31,0-4.14.77-5.49,2.32-1.35,1.55-2.03,3.7-2.03,6.45,0,1.85.33,3.43.98,4.74.65,1.31,1.55,2.31,2.71,2.98,1.15.67,2.46,1.01,3.93,1.01,1.72,0,3.23-.41,4.51-1.22s2.3-2.13,3.05-3.94l3.56,1.41c-1.07,2.57-2.59,4.43-4.54,5.61-1.95,1.17-4.17,1.76-6.64,1.76-2.25,0-4.27-.52-6.08-1.55-1.81-1.03-3.21-2.49-4.22-4.37s-1.51-4.02-1.51-6.43.5-4.59,1.51-6.45,2.41-3.29,4.2-4.29c1.79-1,3.82-1.5,6.1-1.5h.02Z"/>
      <path class="st12" d="M1764.42,1479.39c-.33-1.69-1.07-2.92-2.25-3.68-1.17-.77-2.6-1.15-4.29-1.15-1.43,0-2.61.28-3.54.84-.93.56-1.39,1.28-1.39,2.16,0,.94.44,1.67,1.32,2.21.88.53,2.16,1,3.86,1.41l.2.05,2.49.61c2.6.63,4.51,1.49,5.73,2.6s1.83,2.54,1.83,4.29c0,1.31-.41,2.5-1.22,3.54-.81,1.05-1.97,1.87-3.46,2.46-1.5.59-3.22.89-5.17.89-2.67,0-4.95-.61-6.86-1.83-1.9-1.22-3.2-3.14-3.88-5.77l3.56-.99c.42,1.72,1.28,3,2.56,3.83,1.29.83,2.81,1.24,4.56,1.24s3.11-.3,4.15-.92c1.04-.61,1.56-1.4,1.56-2.37,0-.91-.41-1.62-1.24-2.13-.83-.52-2.22-1.01-4.17-1.48l-2.49-.56c-2.6-.66-4.51-1.56-5.71-2.72-1.2-1.16-1.81-2.6-1.81-4.32,0-1.28.38-2.42,1.15-3.4.76-.99,1.84-1.76,3.22-2.32s2.97-.84,4.76-.84c2.64,0,4.9.65,6.78,1.95,1.89,1.3,3.01,3.17,3.37,5.61l-3.61.8h-.01Z"/>
      <path class="st12" d="M1783.11,1471.04c2.15,0,4.08.5,5.78,1.5,1.71,1,3.05,2.41,4.03,4.22.98,1.81,1.46,3.91,1.46,6.29,0,.53-.02.91-.05,1.13h-20.69v-3.1h18.3l-1.81,2.11c0-2.85-.64-5.01-1.93-6.48s-3-2.21-5.15-2.21c-2.31,0-4.14.77-5.49,2.32-1.35,1.55-2.03,3.7-2.03,6.45,0,1.85.33,3.43.98,4.74.65,1.31,1.55,2.31,2.71,2.98,1.15.67,2.46,1.01,3.93,1.01,1.72,0,3.23-.41,4.51-1.22s2.3-2.13,3.05-3.94l3.56,1.41c-1.07,2.57-2.59,4.43-4.54,5.61-1.95,1.17-4.17,1.76-6.64,1.76-2.25,0-4.27-.52-6.08-1.55-1.81-1.03-3.21-2.49-4.22-4.37s-1.51-4.02-1.51-6.43.5-4.59,1.51-6.45,2.41-3.29,4.2-4.29c1.79-1,3.82-1.5,6.1-1.5h.02Z"/>
      <path class="st12" d="M1802.83,1471.46v23.7h-4.2v-23.7h4.2ZM1810.35,1471.04c1.79,0,3.38.38,4.78,1.15s2.49,1.85,3.27,3.26,1.17,3.04,1.17,4.88v14.83h-4.2v-14.22c0-1.91-.54-3.43-1.63-4.58-1.09-1.14-2.51-1.71-4.27-1.71-1.95,0-3.55.59-4.78,1.76-1.24,1.17-1.85,2.73-1.85,4.67l-1.42.05c0-2.31.41-4.22,1.24-5.73s1.92-2.6,3.27-3.31c1.35-.7,2.82-1.06,4.42-1.06h0Z"/>
      <path class="st12" d="M1835.48,1495.58c-2.25,0-4.27-.52-6.08-1.57s-3.23-2.5-4.27-4.37c-1.04-1.86-1.56-3.98-1.56-6.36s.52-4.5,1.56-6.36,2.46-3.31,4.27-4.34,3.83-1.55,6.08-1.55c2.67,0,5,.65,7,1.95,2,1.3,3.49,3.36,4.47,6.17l-3.76,1.41c-.72-2.06-1.71-3.57-2.98-4.5s-2.85-1.41-4.73-1.41c-1.4,0-2.68.34-3.83,1.03-1.16.69-2.07,1.68-2.76,2.98-.68,1.3-1.03,2.84-1.03,4.62s.34,3.37,1.03,4.67c.68,1.3,1.6,2.28,2.76,2.96,1.15.67,2.43,1.01,3.83,1.01,1.89,0,3.47-.46,4.73-1.38,1.27-.92,2.26-2.42,2.98-4.48l3.76,1.41c-.98,2.82-2.46,4.87-4.47,6.17-2,1.3-4.34,1.95-7,1.95h0Z"/>
      <path class="st12" d="M1852.56,1466.86c-.85,0-1.55-.26-2.1-.77-.55-.52-.83-1.2-.83-2.04,0-.78.28-1.44.83-1.97.55-.53,1.25-.8,2.1-.8s1.56.27,2.15.8.88,1.19.88,1.97c0,.84-.29,1.52-.85,2.04s-1.29.77-2.17.77h-.01ZM1854.66,1471.46v23.7h-4.2v-23.7h4.2Z"/>
      <path class="st12" d="M1868.47,1495.63c-1.79,0-3.43-.29-4.93-.87s-2.68-1.42-3.56-2.51c-.88-1.1-1.32-2.41-1.32-3.94s.45-2.8,1.34-3.9c.89-1.09,2.1-1.93,3.61-2.51s3.18-.87,5-.87c2.9,0,5.13.63,6.71,1.9s2.37,3,2.37,5.19c0,2.41-.8,4.26-2.39,5.56s-3.87,1.95-6.83,1.95h0ZM1876.18,1495.16v-4.46l.05-.66v-4.32l-.15-.28v-4.69c0-2.1-.61-3.64-1.83-4.62-1.22-.99-2.79-1.48-4.71-1.48-1.66,0-3.08.42-4.25,1.24-1.17.83-1.95,1.95-2.34,3.36l-3.56-1.27c.59-2.22,1.8-3.93,3.64-5.14,1.84-1.2,4.03-1.81,6.56-1.81,1.92,0,3.68.33,5.29.99s2.91,1.68,3.91,3.07c.99,1.39,1.49,3.14,1.49,5.23v14.83h-4.1ZM1869.64,1492.44c1.92,0,3.49-.36,4.71-1.08s1.83-1.74,1.83-3.05-.61-2.33-1.83-3.05c-1.22-.72-2.79-1.08-4.71-1.08s-3.6.35-4.83,1.06c-1.24.7-1.85,1.73-1.85,3.07s.62,2.37,1.85,3.07c1.24.7,2.85,1.06,4.83,1.06Z"/>
      <path class="st12" d="M1891.9,1495.16c-2.05,0-3.63-.58-4.73-1.74-1.11-1.16-1.66-2.69-1.66-4.6v-26.51h4.2v26.28c0,1,.22,1.75.66,2.25.44.5,1.15.75,2.12.75h2.05v3.57h-2.64Z"/>
    </g>
    <g class="st8">
      <text class="st7" transform="translate(1894.59 1495.16) scale(1.04 1)"><tspan x="0" y="0">.work</tspan></text>
    </g>
  </g>
  <rect class="st15" x="-2.28" y="-.71" width="1205.21" height="1202.08"/>
  <path class="st12" d="M875.75,403.15v-88.94h-465.89v72.16c28.28,10.13,53.01,28.8,74.22,56.02,18.39,23.6,31.65,45.7,39.81,66.3h-128.5v72.16c28.28,10.13,53.01,28.8,74.22,56.02,19.84,25.47,33.73,49.18,41.65,71.14h-115.87v72.16c28.28,10.13,53.01,28.8,74.22,56.02,21.2,27.21,35.61,52.43,43.2,75.64h80.71c-14.56-44.1-37.03-82.39-67.41-114.89h335.17v-88.94h-269.31c-14.59-42.2-36.52-79.01-65.86-110.39h335.17v-88.94h-256.54c-14.57-40.18-35.95-75.36-64.16-105.54h335.17,0Z"/>
</svg>